<svg xmlns="http://www.w3.org/2000/svg" viewBox="0 0 841 399.3" width="841" height="399.3">
	<!-- klanglabor krake -->
	<path d="M369.8,156.4c109.4,17.9,82.3,56.9,75.8,63.8c-15.5,16.1-139.4,46.4-139.4,46.4c-52,9,51,82.2,27,69.2 c-43.1-23.3-104.5-75.2-55.8-87.7c78-20.1,95.7-25.2,95.7-25.2c19.1-10.9,42.2-45.7,26.4-51.6C343.2,150.4,369.8,156.4,369.8,156.4 L369.8,156.4z"/>
	<path d="M389.7,153.2c-32.2,49.4,37.5,47.8,37.5,47.8s16.4-6.6,4.4-13.9c-32.3-19.6-35-14.2-8.9-53.7c49.5-74.7-4.9-61-25.4-56.5 c-20.9,4.7-56.2,13.6-6.5,7.5C433.1,79.2,423.5,101.3,389.7,153.2L389.7,153.2z"/>
	<path d="M135.5,128.7c41.7-16,142.1-55.7,174.5-0.2c31.1,53.4,48,67.3,79.1,66.2c31.2-1,13.3,21.8-16.2,22.4 c-19.4,0.4-48.5-7.3-73.1-45.4c-24.7-38-41.4-52.9-65.8-54.8c-24.4-1.8-50.1,2-72.3,8.4C90.2,146.1,135.5,128.7,135.5,128.7 L135.5,128.7z"/>
	<path d="M97.2,175.7c35.5-17.3,116-19.2,161.4-0.2c46.1,19.4,75.5,35.4,85.6,39.1c12,4.4,52.6-0.6,59,1.9s-12.3,20.1-40,18.4 s-50.8-8.6-108.1-39.7c-56.2-30.5-97.1-21.9-118.6-21.4C109.8,174.4,38.1,204.5,97.2,175.7L97.2,175.7z"/>
	<path d="M217.5,236.9c-2.6-14.6,12.8-17,44.4-15c35.5,2.2,58.8,10.6,84.3,14.3c25.5,3.7,12.3-10.9-13.1-15s-59.2-7.9-86.1-8.8 c-26-0.9-36.1,8.7-34.5,16.6C215.6,244.8,217.5,236.9,217.5,236.9L217.5,236.9z"/>
	<!-- klanglabor wordmark -->
	<path d="M384.5,292.1l11.8-10h13.4l-15.9,12.8l12.4,14.9h-13.8l-9-11.3l-1.8,11.3h-9.8l7.1-44.8h9.8L384.5,292.1z"/>
	<path d="M420.2,309.8h-9.8l7.1-44.8h9.8L420.2,309.8z"/>
	<path d="M458.3,309.8h-9.8l0.5-3.1h-0.1c-2.2,2.8-5.8,4-9,4c-8.2,0-12.9-6.9-11.6-14.8s8-14.7,16.2-14.7c3.2,0,6.3,1.2,8,3.6 l0.4-2.7h9.8L458.3,309.8z M438.4,296c-0.6,3.5,1.3,6.2,5.3,6.2s6.7-2.7,7.3-6.2c0.5-3.4-1.3-6.3-5.3-6.3S438.9,292.6,438.4,296z"/>
	<path d="M479.9,285.7h0.1c2.8-3.3,5.7-4.5,9.6-4.5c7.5,0,9.7,4.7,8.6,11.5l-2.7,17.1h-9.8l2.1-13.5c0.4-2.6,1.6-7.3-3.3-7.3 c-4,0-5.6,3-6.1,6.4l-2.3,14.4h-9.8l4.4-27.7h9.8L479.9,285.7z"/>
	<path d="M534.1,307.1c-1.9,11.8-8.5,16.5-18.7,16.5c-6.4,0-14.4-3.3-14.1-10.6h11c0.1,1,0.7,1.7,1.5,2.1s1.8,0.6,2.7,0.6 c5.3,0,6.9-3.5,7.6-7.9l0.2-1.3c-2.9,2.5-5.7,3.8-9.4,3.8c-8.1,0-12.7-6.2-11.4-14.1c1.3-8.1,8.1-15,16.6-15c3.2,0,6,1.1,7.5,3.8 h0.1l0.5-2.9h9.8L534.1,307.1z M513.7,295.8c-0.6,3.5,1.3,6.2,5.3,6.2s6.7-2.7,7.3-6.2c0.5-3.4-1.3-6.3-5.3-6.3 S514.3,292.4,513.7,295.8z"/>
	<path d="M551,309.8h-9.8l7.1-44.8h9.8L551,309.8z"/>
	<path d="M589.1,309.8h-9.8l0.5-3.1h-0.1c-2.2,2.8-5.8,4-9,4c-8.2,0-12.9-6.9-11.6-14.8c1.3-7.9,8-14.7,16.2-14.7 c3.2,0,6.3,1.2,8,3.6l0.4-2.7h9.8L589.1,309.8z M569.2,296c-0.6,3.5,1.3,6.2,5.3,6.2s6.7-2.7,7.3-6.2c0.5-3.4-1.3-6.3-5.3-6.3 S569.7,292.6,569.2,296z"/>
	<path d="M603.8,265h9.8l-3.1,19.8c2.5-2.4,6-3.6,9.2-3.6c8.2,0,12.8,6.8,11.5,14.7c-1.3,8-8.1,14.8-16.3,14.8c-3.2,0-6.4-1.2-7.7-4 H607l-0.5,3.1h-9.8L603.8,265z M608.4,296c-0.6,3.5,1.3,6.2,5.3,6.2s6.7-2.7,7.3-6.2c0.5-3.4-1.3-6.3-5.3-6.3S608.9,292.6,608.4,296 z"/>
	<path d="M668.7,296c-1.5,9.4-10.1,14.7-19,14.7s-15.8-5.3-14.3-14.7c1.5-9.4,10.1-14.8,19-14.8S670.2,286.6,668.7,296z M645.7,296 c-0.6,3.5,1.3,6.2,5.3,6.2s6.7-2.7,7.3-6.2c0.5-3.4-1.3-6.3-5.3-6.3S646.2,292.6,645.7,296z"/>
	<path d="M685.8,286.7L685.8,286.7c2.5-3.4,6-4.9,9.8-4.9h1.9l-1.5,9.5c-1.2-0.8-2.5-0.9-4-0.9c-5.5,0-7.4,3.6-8.1,8.4l-1.8,11.2 h-9.8l4.4-27.7h9.8L685.8,286.7z"/>
</svg>
