<svg xmlns="http://www.w3.org/2000/svg" viewBox="0 0 841.9 595.3" width="841.9" height="595.3">
	<!-- klanglabor krake -->
	<path d="M372.8,238.9c109.4,17.9,82.3,56.9,75.8,63.8c-15.5,16.1-139.4,46.4-139.4,46.4c-52,9,51,82.2,27,69.2 c-43.1-23.3-104.5-75.2-55.8-87.7c78-20.1,95.7-25.2,95.7-25.2c19.1-10.9,42.2-45.7,26.4-51.6C346.2,232.9,372.8,238.9,372.8,238.9 L372.8,238.9z"/>
	<path d="M392.7,235.7c-32.2,49.4,37.5,47.8,37.5,47.8s16.4-6.6,4.4-13.9c-32.3-19.6-35-14.2-8.9-53.7c49.5-74.7-4.9-61-25.4-56.5 c-20.9,4.7-56.2,13.6-6.5,7.5C436.1,161.7,426.5,183.8,392.7,235.7L392.7,235.7z"/>
	<path d="M138.5,211.2c41.7-16,142.1-55.7,174.5-0.2c31.1,53.4,48,67.3,79.1,66.2c31.2-1,13.3,21.8-16.2,22.4 c-19.4,0.4-48.5-7.3-73.1-45.4c-24.7-38-41.4-52.9-65.8-54.8c-24.4-1.8-50.1,2-72.3,8.4C93.2,228.6,138.5,211.2,138.5,211.2 L138.5,211.2z"/>
	<path d="M100.2,258.2c35.5-17.3,116-19.2,161.4-0.2c46.1,19.4,75.5,35.4,85.6,39.1c12,4.4,52.6-0.6,59,1.9 c6.4,2.5-12.3,20.1-40,18.4c-27.7-1.7-50.8-8.6-108.1-39.7c-56.2-30.5-97.1-21.9-118.6-21.4C112.8,256.9,41.1,287,100.2,258.2 L100.2,258.2z"/>
	<path d="M220.5,319.4c-2.6-14.6,12.8-17,44.4-15c35.5,2.2,58.8,10.6,84.3,14.3c25.5,3.7,12.3-10.9-13.1-15 c-25.4-4.1-59.2-7.9-86.1-8.8c-26-0.9-36.1,8.7-34.5,16.6C218.6,327.3,220.5,319.4,220.5,319.4L220.5,319.4z"/>
	<!-- klanglabor wordmark -->
	<path d="M387.5,374.6l11.8-10h13.4l-15.9,12.8l12.4,14.9h-13.8l-9-11.3l-1.8,11.3h-9.8l7.1-44.8h9.8L387.5,374.6z"/>
	<path d="M423.2,392.3h-9.8l7.1-44.8h9.8L423.2,392.3z"/>
	<path d="M461.3,392.3h-9.8l0.5-3.1h-0.1c-2.2,2.8-5.8,4-9,4c-8.2,0-12.9-6.9-11.6-14.8c1.3-7.9,8-14.7,16.2-14.7 c3.2,0,6.3,1.2,8,3.6l0.4-2.7h9.8L461.3,392.3z M441.4,378.5c-0.6,3.5,1.3,6.2,5.3,6.2s6.7-2.7,7.3-6.2c0.5-3.4-1.3-6.3-5.3-6.3 S441.9,375.1,441.4,378.5z"/>
	<path d="M482.9,368.2h0.1c2.8-3.3,5.7-4.5,9.6-4.5c7.5,0,9.7,4.7,8.6,11.5l-2.7,17.1h-9.8l2.1-13.5c0.4-2.6,1.6-7.3-3.3-7.3 c-4,0-5.6,3-6.1,6.4l-2.3,14.4h-9.8l4.4-27.7h9.8L482.9,368.2z"/>
	<path d="M537.1,389.6c-1.9,11.8-8.5,16.5-18.7,16.5c-6.4,0-14.4-3.3-14.1-10.6h11c0.1,1,0.7,1.7,1.5,2.1s1.8,0.6,2.7,0.6 c5.3,0,6.9-3.5,7.6-7.9l0.2-1.3c-2.9,2.5-5.7,3.8-9.4,3.8c-8.1,0-12.7-6.2-11.4-14.1c1.3-8.1,8.1-15,16.6-15c3.2,0,6,1.1,7.5,3.8 h0.1l0.5-2.9h9.8L537.1,389.6z M516.7,378.3c-0.6,3.5,1.3,6.2,5.3,6.2s6.7-2.7,7.3-6.2c0.5-3.4-1.3-6.3-5.3-6.3 S517.3,374.9,516.7,378.3z"/>
	<path d="M554,392.3h-9.8l7.1-44.8h9.8L554,392.3z"/>
	<path d="M592.1,392.3h-9.8l0.5-3.1h-0.1c-2.2,2.8-5.8,4-9,4c-8.2,0-12.9-6.9-11.6-14.8c1.3-7.9,8-14.7,16.2-14.7 c3.2,0,6.3,1.2,8,3.6l0.4-2.7h9.8L592.1,392.3z M572.2,378.5c-0.6,3.5,1.3,6.2,5.3,6.2s6.7-2.7,7.3-6.2c0.5-3.4-1.3-6.3-5.3-6.3 S572.7,375.1,572.2,378.5z"/>
	<path d="M606.8,347.5h9.8l-3.1,19.8c2.5-2.4,6-3.6,9.2-3.6c8.2,0,12.8,6.8,11.5,14.7c-1.3,8-8.1,14.8-16.3,14.8 c-3.2,0-6.4-1.2-7.7-4H610l-0.5,3.1h-9.8L606.8,347.5z M611.4,378.5c-0.6,3.5,1.3,6.2,5.3,6.2s6.7-2.7,7.3-6.2 c0.5-3.4-1.3-6.3-5.3-6.3S611.9,375.1,611.4,378.5z"/>
	<path d="M671.7,378.5c-1.5,9.4-10.1,14.7-19,14.7c-8.9,0-15.8-5.3-14.3-14.7c1.5-9.4,10.1-14.8,19-14.8S673.2,369.1,671.7,378.5z M648.7,378.5c-0.6,3.5,1.3,6.2,5.3,6.2s6.7-2.7,7.3-6.2c0.5-3.4-1.3-6.3-5.3-6.3S649.2,375.1,648.7,378.5z"/>
	<path d="M688.8,369.2h0.1c2.4-3.4,5.9-4.9,9.7-4.9h1.9l-1.5,9.5c-1.2-0.8-2.5-0.9-4-0.9c-5.5,0-7.4,3.6-8.1,8.4l-1.8,11.2h-9.8 l4.4-27.7h9.8L688.8,369.2z"/>
</svg>
